PathFileType	4	(X/Y/Z)	C:\Github\FootballMatch-and-Movement-Analysis\output\test4 Exam_2026-03-06_143128_tvc1_Sports2D\test4 Exam_2026-03-06_143128_tvc1_Sports2D_px_person00.trc
DataRate	CameraRate	NumFrames	NumMarkers	Units	OrigDataRate	OrigDataStartFrame	OrigNumFrames
30.0	30.0	8	22	m	30.0	40	320
Frame#	Time	Hip			RHip			RKnee			RAnkle			RBigToe			RSmallToe			RHeel			LHip			LKnee			LAnkle			LBigToe			LSmallToe			LHeel			Neck			Head			Nose			RShoulder			RElbow			RWrist			LShoulder			LElbow			LWrist			
		X1	Y1	Z1	X2	Y2	Z2	X3	Y3	Z3	X4	Y4	Z4	X5	Y5	Z5	X6	Y6	Z6	X7	Y7	Z7	X8	Y8	Z8	X9	Y9	Z9	X10	Y10	Z10	X11	Y11	Z11	X12	Y12	Z12	X13	Y13	Z13	X14	Y14	Z14	X15	Y15	Z15	X16	Y16	Z16	X17	Y17	Z17	X18	Y18	Z18	X19	Y19	Z19	X20	Y20	Z20	X21	Y21	Z21	X22	Y22	Z22
40	1.3375130616509925	714.109113414183	675.6093752040492	0.0	705.056586797541	684.8922435608415	0.0	715.5221165975605	845.0280295895059	0.0	733.5653481040637	987.206521138257	0.0	686.6287753415845	1032.789085625291	0.0	687.4696461962391	1021.8155081083838	0.0	746.492371162816	1018.2179704430786	0.0	721.0317764408087	682.7132286792611	0.0	720.0985292777999	851.2376108239603	0.0	740.8188255420393	998.4400343238492	0.0	678.468439207672	1037.371781656416	0.0	703.5796140320058	1040.8328030880693	0.0	757.9442447364083	1022.9194860821551	0.0	697.1974546787108	414.06708334759674	0.0	639.660371926771	318.98518956040766	0.0	628.9916713375346	395.4960090095383	0.0	693.756907837241	450.43645549252244	0.0	701.2678920446772	571.3270905281112	0.0	685.8273944711846	658.9975013848814	0.0	730.1243384804789	436.7367305621259	0.0	736.1076595908903	559.9416455228267	0.0	714.8556953037239	658.2998804475901	0.0
41	1.3709508881922674	713.9527046930664	675.6001814098025	0.0	705.1302712316342	685.1934349666475	0.0	716.1801272050759	845.8399680443919	0.0	733.5487336698426	988.7716400959035	0.0	686.2886643503507	1034.0673510582226	0.0	686.5063936606351	1022.5425134413643	0.0	746.5377401955457	1018.726273120838	0.0	720.7145785750868	683.2003822942428	0.0	720.0085601489633	851.7705296945178	0.0	740.6467604449733	997.9948888539705	0.0	679.2528558289212	1037.7184456577063	0.0	703.8342749449569	1040.7907624710115	0.0	756.9353944677198	1022.6476815574146	0.0	696.0776284048952	413.80080273699684	0.0	638.5030495982771	319.3537681322181	0.0	626.9372607105774	395.41122655579954	0.0	690.9363446459857	451.35933124100745	0.0	698.9365612649235	571.2606186926424	0.0	684.5764812058694	657.5826380978699	0.0	729.2855930461006	436.26435107351807	0.0	735.6815958543234	557.6042925019219	0.0	716.1862894129578	657.084297547706	0.0
42	1.404388714733542	713.4352088355204	675.0871109081636	0.0	704.6412184146726	682.5934835067251	0.0	716.3300578988387	845.3266223929522	0.0	733.203607772114	989.6374216939677	0.0	687.4116573571227	1034.7333588603249	0.0	686.5300591585451	1021.9256977160696	0.0	745.7648382974819	1018.6071432248757	0.0	720.5037415268359	681.1295286644719	0.0	719.7649898732026	850.9858692832464	0.0	740.4346110194772	997.6727429593639	0.0	679.3954208984884	1037.830831325881	0.0	704.4374021039946	1041.3086014747591	0.0	756.0118392936138	1022.0196375473585	0.0	694.3924366423312	413.6869303389065	0.0	636.8194026951852	319.3491981525536	0.0	625.3812311029533	395.17633398730186	0.0	687.8235079435938	451.8912314813672	0.0	695.7164047680508	571.3461632870893	0.0	683.4146343857341	655.661407130217	0.0	728.3306899745471	435.3633477421143	0.0	735.6836333840175	554.8000583666673	0.0	717.8056465461239	656.0829608832148	0.0
43	1.437826541274817	712.675414756583	675.0786554524236	0.0	703.8531595146089	680.3753992042431	0.0	716.1184809448538	845.0987790427846	0.0	733.3242272087037	989.842607271795	0.0	688.3363060536283	1034.8515703523235	0.0	686.7748706603666	1021.1998214196141	0.0	744.7007161268973	1018.7436540053517	0.0	720.464862948018	678.9856546605902	0.0	719.6972933200292	850.5696915689593	0.0	740.4017044721782	998.554569869309	0.0	678.5262807233055	1037.7197478872604	0.0	704.4313647807018	1042.6305978792639	0.0	755.4745982525429	1021.8404296523825	0.0	693.0434991087136	413.50688990144175	0.0	634.9208800190497	318.9867378186669	0.0	623.6921028033429	395.2172676273747	0.0	685.9966188833162	451.86424444796444	0.0	693.0783341898816	572.1710581344314	0.0	682.3190682528289	653.6730657394965	0.0	727.6171529786299	434.13314887753637	0.0	736.4854187209726	552.5170876198706	0.0	719.1487204254408	655.4730453634493	0.0
44	1.4712643678160917	711.9768292266647	676.0446138051774	0.0	703.1028690634238	680.2110635452102	0.0	715.6421555650563	845.5657908526655	0.0	733.6299839652463	989.3664794683082	0.0	688.5189463639224	1034.5197736568339	0.0	686.7495654616511	1020.5649007232473	0.0	743.7908828808453	1018.888782668311	0.0	720.6856055261426	678.4775017545808	0.0	719.6117716044675	850.8869428444514	0.0	740.660357110965	999.4322990082305	0.0	677.5717858460507	1037.4017494412078	0.0	703.5834546356446	1043.105259245886	0.0	755.253703058833	1022.1845750105397	0.0	692.0030145504718	413.6035305704313	0.0	632.7142268029304	318.8442176677285	0.0	622.4345780318708	395.6226804986132	0.0	685.0322331692136	451.3186654376594	0.0	691.8330017330038	573.0223083121268	0.0	681.3549953005534	652.3700339786391	0.0	727.3973427197564	433.2641047708771	0.0	737.4431254136816	551.3760686468571	0.0	720.0154422660443	655.2280000199219	0.0
45	1.5047021943573666	711.9286182084388	676.9399414518925	0.0	703.0099586142662	681.4473201668135	0.0	715.1209724780747	845.7024522189952	0.0	733.8065759844358	988.7871191078683	0.0	688.3359795094566	1033.9522294676992	0.0	686.9105748858213	1020.6251836485449	0.0	743.7684652497884	1018.5783364313938	0.0	721.1087059371588	679.4036494438776	0.0	719.4255867031673	850.9858947272126	0.0	741.0604813920277	999.0588091949297	0.0	677.7730950234982	1037.2719046378224	0.0	702.9508181176275	1042.2799199054355	0.0	755.4314570175163	1022.3638875649328	0.0	690.5840885148564	414.0859729788548	0.0	630.2536799562184	319.3192398761117	0.0	622.0870273755484	396.06380517023274	0.0	683.5911109580209	450.86100404856677	0.0	691.4800470362021	572.3625097412148	0.0	680.6833289968442	651.948380701622	0.0	727.5308792983112	433.02112127901586	0.0	737.620325985854	551.0997010836212	0.0	720.4383094444489	654.609025482878	0.0
46	1.5381400208986413	712.9898641661914	676.9477563967716	0.0	704.1660335345762	683.5883634575853	0.0	714.9540191024224	845.6780054294686	0.0	734.1948642000712	989.0937039900631	0.0	687.3896495683981	1033.760908363934	0.0	687.1756838037987	1022.1969927077756	0.0	745.1529826168271	1018.4001117394164	0.0	721.4674632573322	681.4092186708605	0.0	719.5484231563732	850.9064713388827	0.0	741.3486312828833	998.1157120270373	0.0	678.7835019240622	1037.5942929684966	0.0	703.2207230535113	1041.748739351571	0.0	756.047667072392	1022.1794348780159	0.0	688.8809192310969	414.36439396165736	0.0	628.2964327678951	320.12376598193407	0.0	621.1779014269252	396.51651552017194	0.0	681.3346230122384	451.35908278167665	0.0	691.2737315209872	570.7058645369543	0.0	680.2952747795728	652.0105287493844	0.0	727.0562167399006	432.8612462031649	0.0	736.8226321500235	550.7424502137824	0.0	720.5922353514444	653.3242494487989	0.0
47	1.5715778474399162	714.2485608735633	676.5366728767854	0.0	705.8398851947591	686.1481660444027	0.0	715.1885253017962	846.3120974843241	0.0	734.7937885274217	990.1815039211126	0.0	685.2776016431789	1034.2365059796698	0.0	686.785421952442	1024.333936538519	0.0	746.8856817975548	1018.8726839153769	0.0	721.4465149507673	683.8888706352332	0.0	719.9112969178155	851.2261718811084	0.0	741.33897324749	997.7004545529152	0.0	679.2085776741799	1037.7549029391982	0.0	703.6631705537875	1041.85277538525	0.0	756.7324364612526	1022.1004144914525	0.0	687.2849358465992	414.15934803327957	0.0	627.2312529469946	320.8079286522471	0.0	618.7470699973846	397.0647901719094	0.0	679.1883609595651	452.5340485626991	0.0	691.131443307047	570.120509275176	0.0	679.9507833714551	652.0332590269869	0.0	725.3952584838083	432.59274400146245	0.0	735.9657566631935	550.0241544327828	0.0	720.3722414368656	652.1035048064255	0.0
